<?xml version="1.0" encoding="utf-8"?>
<!-- Generator: Adobe Illustrator 18.1.0, SVG Export Plug-In . SVG Version: 6.00 Build 0)  -->
<svg version="1.1" id="Layer_1" xmlns="http://www.w3.org/2000/svg" xmlns:xlink="http://www.w3.org/1999/xlink" x="0px" y="0px"
	 viewBox="0 158.8 1440 429.2" enable-background="new 0 158.8 1440 429.2" xml:space="preserve">
<path opacity="0.5" fill="#FFFFFF" enable-background="new    " d="M1133.9,437.2l80.7-246.4c0.4,0,0.8,0.2,1.5,0.2
	c2.3,0,4.7-1.1,6.1-2.8l219,140l1.1-1.7l-219.2-140c0.4-1.1,0.8-2.1,0.8-3.4c0-4.2-3.6-7.8-8-7.8s-8,3.6-8,7.8c0,3.2,1.9,5.7,4.7,7
	l-80.1,244.4l-65.9-119.5c2.5-1.3,4.4-3.8,4.4-7c0-4.2-3.6-7.8-8-7.8c-4.4,0-8,3.6-8,7.8c0,1.1,0.2,2.1,0.6,3L956.4,362L888,330.6
	c0.4-1.1,0.8-2.1,0.8-3.4c0-4.2-3.6-7.8-8-7.8c-4.4,0-8,3.6-8,7.8c0,3,1.7,5.3,4,6.8L821,431.9L523.2,585l-259.9-96.8
	c0.4-0.8,0.6-1.9,0.6-2.8c0-4.2-3.6-7.8-8-7.8s-8,3.6-8,7.8c0,1.1,0.2,2.1,0.6,3L0,584.8l0.8,1.9l248.7-96.8c1.5,1.9,3.8,3,6.4,3
	s4.9-1.3,6.4-3.2l260.5,97l0.4,0.2l295.7-151.7l-86,151.2l1.9,1.1l87.7-154l134.1-68.8l172.9,79.6l-46.6,142.3l2.1,0.6l46.6-142.1
	l5.9,2.8l76.9,139.6l1.9-1.1l-75.4-137.1L1441.5,588l0.8-1.9l-303.1-139.8L1133.9,437.2z M824.4,430l54.2-95.3
	c0.6,0.2,1.5,0.2,2.1,0.2c2.3,0,4.7-1.1,6.1-2.8l67.1,30.9L824.4,430z M958.9,363.2l97.7-50.2c1.5,1.9,3.8,3,6.4,3
	c0.6,0,1.1,0,1.7-0.2l66.9,121.6l-1.5,4.7L958.9,363.2z M1132,443.1l1.1-3.2l2.5,4.9L1132,443.1z"/>
</svg>
