<?xml version="1.0" encoding="utf-8"?>
<!-- Generator: Adobe Illustrator 18.1.0, SVG Export Plug-In . SVG Version: 6.00 Build 0)  -->
<svg version="1.1" id="Layer_1" xmlns="http://www.w3.org/2000/svg" xmlns:xlink="http://www.w3.org/1999/xlink" x="0px" y="0px"
	 viewBox="727.6 169 563.1 562" enable-background="new 727.6 169 563.1 562" xml:space="preserve">
<rect x="727.6" y="169" fill="#FFFFFF" fill-opacity="0" width="562" height="562"/>
<path fill="#FFFFFF" d="M958,380.2h-41.6v67.5H958v197.9h80.9V448.9h54l9-68.6h-61.8l1.2-32.6c0,0-4.5-24.7,21.4-26.9h39.3v-67.5
	h-66.3c0,0-74.2,0-75.3,69.7L958,380.2z"/>
<path display="none" fill="#FFFFFF" d="M1231.4,311.3c-16.6,7.6-34.3,12.7-52.2,14c19.1-11.4,33.1-29.3,40.7-50.9
	c-17.9,10.2-36.9,17.9-58.6,21.6c-16.6-17.9-40.7-29.3-66.2-29.3c-50.9,0-91.6,40.7-91.6,91.6c0,7.6,1.3,14,2.6,20.3
	c-76.3-3.8-143.8-40.7-188.4-95.5c-7.6,14-12.7,29.3-12.7,45.9c0,31.9,16.6,59.9,40.7,76.3c-15.3,0-29.3-5.1-42-11.4v1.3
	c0,44.6,31.9,81.5,73.9,89c-7.6,2.6-15.3,3.8-24.2,3.8c-6.4,0-11.4,0-17.9-1.3c11.4,36.9,45.9,62.3,85.3,63.6
	c-31.9,24.2-71.3,39.4-113.3,39.4c-7.6,0-15.3,0-21.6-1.3c40.7,25.4,89,40.7,140,40.7c168,0,259.7-138.8,259.7-259.7
	c0-3.8,0-7.6,0-11.4C1203.4,346.9,1218.6,330.3,1231.4,311.3z"/>
<g display="none">
	<g display="inline">
		<g>
			<path fill="#FFFFFF" d="M794.8,376.2h91.6v295.3h-91.6V376.2L794.8,376.2z M840.6,228.6c29.3,0,53.5,24.2,53.5,53.5
				s-24.2,53.5-53.5,53.5c-29.3,0-53.5-24.2-53.5-53.5S811.3,228.6,840.6,228.6"/>
			<path fill="#FFFFFF" d="M943.7,376.2h87.8v40.7h1.3c12.7-22.9,42-47.1,86.6-47.1c92.9,0,109.5,61,109.5,141.3v161.6h-91.6V527.7
				c0-34.3-1.3-78.9-48.3-78.9c-48.3,0-54.7,36.9-54.7,76.3v146.3h-91.6V376.2H943.7z"/>
		</g>
	</g>
</g>
</svg>
