<?xml version="1.0" encoding="utf-8"?>
<!-- Generator: Adobe Illustrator 18.1.0, SVG Export Plug-In . SVG Version: 6.00 Build 0)  -->
<svg version="1.1" id="Layer_1" xmlns="http://www.w3.org/2000/svg" xmlns:xlink="http://www.w3.org/1999/xlink" x="0px" y="0px"
	 viewBox="270 0 900 900" enable-background="new 270 0 900 900" xml:space="preserve">
<rect x="336" y="66" fill="#FFFFFF" fill-opacity="0" width="768" height="768"/>
<path display="none" fill="#FFFFFF" d="M639,338.4h-66.6v108H639v316.8h129.6v-315H855l14.4-109.8h-99l1.8-52.2
	c0,0-7.2-39.6,34.2-43.2h63V135H763.2c0,0-118.8,0-120.6,111.6L639,338.4z"/>
<path display="none" fill="#FFFFFF" d="M1035,253.8c-23.4,10.8-48.6,18-73.8,19.8c27-16.2,46.8-41.4,57.6-72
	c-25.2,14.4-52.2,25.2-82.8,30.6c-23.4-25.2-57.6-41.4-93.6-41.4c-72,0-129.6,57.6-129.6,129.6c0,10.8,1.8,19.8,3.6,28.8
	c-108-5.4-203.4-57.6-266.4-135c-10.8,19.8-18,41.4-18,64.8c0,45,23.4,84.6,57.6,108c-21.6,0-41.4-7.2-59.4-16.2v1.8
	c0,63,45,115.2,104.4,126c-10.8,3.6-21.6,5.4-34.2,5.4c-9,0-16.2,0-25.2-1.8c16.2,52.2,64.8,88.2,120.6,90
	C550.8,626.4,495,648,435.6,648c-10.8,0-21.6,0-30.6-1.8c57.6,36,126,57.6,198,57.6c237.6,0,367.2-196.2,367.2-367.2
	c0-5.4,0-10.8,0-16.2C995.4,304.2,1017,280.8,1035,253.8z"/>
<g>
	<g>
		<g>
			<path fill="#FFFFFF" d="M461.9,360.9h110.6v356.4H461.9V360.9z M517.2,182.7c35.3,0,64.5,29.2,64.5,64.5s-29.2,64.5-64.5,64.5
				c-35.3,0-64.5-29.2-64.5-64.5C452.7,211.9,481.9,182.7,517.2,182.7"/>
			<path fill="#FFFFFF" d="M641.7,360.9h106v49.2h1.5c15.4-27.6,50.7-56.8,104.5-56.8c112.1,0,132.1,73.7,132.1,170.5v195.1H875.1
				V543.7c0-41.5-1.5-95.2-58.4-95.2c-58.4,0-66.1,44.5-66.1,92.2v176.6H640.1V360.9H641.7z"/>
		</g>
	</g>
</g>
</svg>
