<?xml version="1.0" encoding="utf-8"?>
<!-- Generator: Adobe Illustrator 19.1.0, SVG Export Plug-In . SVG Version: 6.00 Build 0)  -->
<svg version="1.1" id="Layer_1" xmlns="http://www.w3.org/2000/svg" xmlns:xlink="http://www.w3.org/1999/xlink" x="0px" y="0px"
	 viewBox="0 0 311 394" style="enable-background:new 0 0 311 394;" xml:space="preserve">
<style type="text/css">
	.st0{fill:none;stroke:#FFFFFF;stroke-width:1.8924;stroke-linecap:round;stroke-linejoin:round;stroke-miterlimit:10;}
	.st1{fill:none;stroke:#FFFFFF;stroke-width:2.3655;stroke-linecap:round;stroke-linejoin:round;stroke-miterlimit:10;}
	.st2{fill:none;stroke:#FFFFFF;stroke-width:0.9462;stroke-linecap:round;stroke-linejoin:round;stroke-miterlimit:10;}
	.st3{fill:none;stroke:#FFFFFF;stroke-width:1.4193;stroke-linecap:round;stroke-linejoin:round;stroke-miterlimit:10;}
	.st4{fill:#FFFFFF;}
	.st5{fill:none;stroke:#FFFFFF;stroke-width:1.892;stroke-linecap:round;stroke-linejoin:round;stroke-miterlimit:10;}
	.st6{opacity:0.2;fill:#CECECE;}
	.st7{opacity:0.1;fill:#CECECE;stroke:#FFFFFF;stroke-width:0.6715;stroke-miterlimit:10;}
	.st8{opacity:0.1;fill:#CECECE;}
	.st9{opacity:5.000000e-02;fill:#CECECE;}
	.st10{opacity:5.000000e-02;fill:#CECECE;stroke:#FFFFFF;stroke-width:0.6715;stroke-miterlimit:10;}
	.st11{opacity:0.15;fill:#CECECE;}
</style>
<path class="st0" d="M152.5,13.5c0,0,43.1-4.3,83.2,40.1L128,186.5L152.5,13.5z"/>
<line class="st1" x1="134.2" y1="144.5" x2="45.1" y2="102.2"/>
<path class="st1" d="M235.8,53.6"/>
<path class="st1" d="M235.8,53.6c0,0,55.6,62.7,60.9,132.9L167.3,138"/>
<polygon class="st2" points="128,186.5 190.7,325.5 167.3,138 "/>
<path class="st1" d="M42.6,102.2c0,0-38.4,62.7-26.7,144.7L128,186.5L42.6,102.2z"/>
<path class="st2" d="M296.7,186.5c0,0,19.8,131.6-93.6,189.3L296.7,186.5z"/>
<path class="st1" d="M203.5,375.6c0,0-72.9,35.1-136.4-27.6l123.7-22.5l12.4,52.1"/>
<line class="st3" x1="128" y1="186.5" x2="65.8" y2="345.1"/>
<path class="st3" d="M66.5,346.8c0,0-44.5-38.1-51.4-105.2"/>
<circle class="st4" cx="15.8" cy="246.9" r="5.4"/>
<circle class="st4" cx="127.3" cy="185.5" r="5.4"/>
<circle class="st4" cx="66.4" cy="347.4" r="5.4"/>
<circle class="st4" cx="202.8" cy="375.6" r="5.4"/>
<circle class="st4" cx="296.5" cy="186.5" r="5.4"/>
<circle class="st4" cx="133.5" cy="143.3" r="5.4"/>
<circle class="st4" cx="235.7" cy="52.7" r="5.4"/>
<polyline class="st5" points="167.4,138.1 260,260.3 190.4,325.5 "/>
<circle class="st4" cx="167.4" cy="138.1" r="5.4"/>
<circle class="st4" cx="259.4" cy="260.1" r="5.4"/>
<circle class="st4" cx="190.4" cy="324.5" r="5.4"/>
<path class="st2" d="M154.2,13.6L43.7,99.2C43.7,99.2,79.7,16.7,154.2,13.6z"/>
<circle class="st4" cx="152.5" cy="13.6" r="5.4"/>
<circle class="st4" cx="43.2" cy="102.1" r="5.4"/>
<path class="st6" d="M154.2,13.6L43.7,99.2C43.7,99.2,79.7,16.7,154.2,13.6z"/>
<path class="st7" d="M152.5,13.5c0,0,43.1-4.3,83.2,40.1L128,186.5L152.5,13.5z"/>
<path class="st8" d="M42.6,102.2c0,0-38.4,62.7-26.7,144.7L128,186.5L42.6,102.2z"/>
<path class="st9" d="M167.3,138l129.3,48.5c-5.3-70.2-60.9-132.9-60.9-132.9L167.3,138z"/>
<polygon class="st10" points="128,186.5 190.7,325.5 167.3,138 "/>
<path class="st6" d="M296.7,186.5c0,0,19.8,131.6-93.6,189.3L296.7,186.5z"/>
<path class="st9" d="M202.7,375.8c0,0-72,34.9-135.6-27.8l123.7-22.5L202.7,375.8z"/>
<polygon class="st11" points="190.4,325.5 260,260.3 167.4,138.1 "/>
<polygon class="st7" points="167.4,138.1 260,260.3 296.7,186.5 "/>
<path class="st10" d="M128,186.4L65.5,345.7c-6.5-6-41.9-41.1-49.7-98.9l0.1,0L128,186.4z"/>
<polygon class="st11" points="128,186.4 65.5,345.7 70.2,347.4 190.7,325.5 "/>
<polygon class="st6" points="43.7,103.2 128,186.4 134.1,144.2 45.1,102.2 "/>
<polygon class="st10" points="43.7,99.2 152.5,14.9 134.1,144.2 41.3,101 "/>
<polygon class="st8" points="190.7,325.5 203.1,375.8 260,260.3 "/>
</svg>
