<?xml version="1.0" encoding="utf-8"?>
<!-- Generator: Adobe Illustrator 17.1.0, SVG Export Plug-In . SVG Version: 6.00 Build 0)  -->
<!DOCTYPE svg PUBLIC "-//W3C//DTD SVG 1.1//EN" "http://www.w3.org/Graphics/SVG/1.1/DTD/svg11.dtd">
<svg version="1.1" id="Layer_1" xmlns="http://www.w3.org/2000/svg" xmlns:xlink="http://www.w3.org/1999/xlink" x="0px" y="0px"
	 viewBox="2.3 125.8 592.9 592.8" enable-background="new 2.3 125.8 592.9 592.8" xml:space="preserve">
<g>
	<path opacity="0.8" fill="#0D161F" enable-background="new    " d="M296.4,125.8c165.8,0,298.9,130.6,298.9,296.4
		c0,160.8-135.6,298.9-296.4,296.4C100.5,716.1-2.5,547.8,2.5,417.2C5,253.9,130.6,125.8,296.4,125.8z"/>
	<path fill="#2B539A" d="M389.3,248.9c0,15.1,0,30.1,0,45.2h-2.5c0-15.1,0-30.1,0-45.2C386.8,248.9,389.3,248.9,389.3,248.9z"/>
	<path fill="#174994" d="M218.5,422.2c10,0,17.6,0,27.6,2.5C236.1,429.7,226.1,434.8,218.5,422.2z"/>
	<g>
		<path fill="#FDFEFF" d="M448.3,407l-66.5,66.4c-36.7,36.7-96.2,36.7-132.9,0c-5.8-5.8-10.3-12.3-14.3-19l30.9-30.9
			c1.5-1.5,3.3-2.3,5-3.3c2.1,7.3,5.9,14.2,11.6,19.9c18.3,18.3,48.1,18.3,66.4,0l66.4-66.4c18.3-18.3,18.3-48.1,0-66.4
			c-18.3-18.3-48.1-18.3-66.4,0L325,331c-19.2-7.5-39.8-9.5-59.9-6.5l50.3-50.3c36.7-36.7,96.2-36.7,132.9,0
			C485,310.8,485,370.3,448.3,407z M272.6,516.3L249,539.9c-18.3,18.3-48.1,18.3-66.4,0c-18.3-18.3-18.3-48.1,0-66.5L249,407
			c18.3-18.3,48.1-18.3,66.4,0c5.7,5.7,9.5,12.6,11.6,19.9c1.7-1,3.5-1.8,5-3.3l30.9-30.9c-3.9-6.7-8.5-13.2-14.3-19
			c-36.7-36.7-96.2-36.7-132.9,0l-66.4,66.4c-36.7,36.7-36.7,96.2,0,132.9c36.7,36.7,96.2,36.7,132.9,0l50.4-50.4
			C312.4,525.7,291.8,523.7,272.6,516.3z"/>
	</g>
</g>
</svg>
