<?xml version="1.0" encoding="utf-8"?>
<!-- Generator: Adobe Illustrator 17.1.0, SVG Export Plug-In . SVG Version: 6.00 Build 0)  -->
<!DOCTYPE svg PUBLIC "-//W3C//DTD SVG 1.1//EN" "http://www.w3.org/Graphics/SVG/1.1/DTD/svg11.dtd">
<svg version="1.1" id="Layer_1" xmlns="http://www.w3.org/2000/svg" xmlns:xlink="http://www.w3.org/1999/xlink" x="0px" y="0px"
	 viewBox="0 0 23.9 23.8" enable-background="new 0 0 23.9 23.8" xml:space="preserve">
<g>
	<path opacity="0.8" fill="#0D161F" d="M11.9,23.8C5.3,23.8,0,18.5,0,11.9C0,5.3,5.4-0.1,12,0c6.6,0,12,5.4,11.9,12
		C23.9,18.6,18.5,23.8,11.9,23.8z"/>
	<path fill="#FFFFFF" d="M12.6,9.4c0.1,0.3,0.1,0.6,0.2,1.1c0.7-0.7,1.5-1.1,2.4-1.3c0.2-0.2,0.4-0.2,0.6,0C18.3,10,19,11,19,13.6
		c0,1.4,0,2.8,0,4.3c0,0.7-0.2,0.9-0.9,0.8c-0.8-0.1-1.5-0.1-2.3-0.1c-0.3-1.8-0.2-3.5-0.1-5.3c0-1-0.5-1.6-1.5-1.6
		c-1,0-1.6,0.8-1.6,1.8c0,1.5,0,2.9,0,4.4c0,0.6-0.2,0.9-0.8,0.9c-0.8-0.1-1.5-0.1-2.3-0.1c-0.2-0.2-0.3-0.6-0.3-0.9
		c0-2.4,0-4.9,0-7.3c0-0.3,0-0.6,0.2-0.9c0.1-0.1,0.2-0.1,0.3-0.2C10.8,9,11.7,9,12.6,9.4z"/>
	<path fill="#FAFDFD" d="M7.9,9.5c0,2.8,0,5.5,0,8.3c0,0.8-0.3,0.9-1,0.9c-2.1,0-2.1,0-2.1-2c0-2.4-0.1-4.8,0.1-7.3
		C6,9.1,7,8.9,7.9,9.5z"/>
	<path fill="#F9FBFC" d="M8.2,6.6c0,0.9-0.7,1.6-1.7,1.7c-1,0-1.7-0.6-1.8-1.6c0-0.9,0.7-1.6,1.7-1.7C7.4,5,8.1,5.7,8.2,6.6z"/>
	<path fill="#046CB2" d="M4.7,9.9c0,2.8,0,5.6,0,8.4c0,0-0.1,0-0.1,0c0-2.8,0-5.6,0-8.5C4.6,9.9,4.7,9.9,4.7,9.9z"/>
	<path fill="#1576B5" d="M9.4,18.7c-0.1-0.1-0.2-0.3-0.2-0.4c0-2.8,0-5.5,0-8.3c0-0.1,0.1-0.3,0.2-0.4C9.6,12.6,9.6,15.7,9.4,18.7z"
		/>
	<path fill="#156BB3" d="M9.4,18.7c0-3,0-6,0-9c0.1,0,0.2,0,0.2,0c0,3,0,6,0,9C9.5,18.7,9.5,18.7,9.4,18.7z"/>
	<path fill="#0569B1" d="M15.8,13.3c0,1.8,0,3.5,0.1,5.3c-0.5-0.3-0.3-0.8-0.3-1.1C15.7,16.1,15.3,14.7,15.8,13.3z"/>
	<path fill="#0267AF" d="M16.1,19c0.9,0,1.8,0,2.7,0c0,0,0,0.1,0,0.1C17.9,19,17,19,16.1,19C16.1,19,16.1,19,16.1,19z"/>
	<path fill="#0468B0" d="M7.9,9.5c-1,0-2,0-3-0.1c0-0.1,0-0.2,0-0.3C6,9,7,9,8,9.2C8,9.3,8,9.4,7.9,9.5z"/>
	<path fill="#0468B0" d="M12.6,9.4c-0.9,0-1.8,0-2.7,0c-0.1-0.1-0.2-0.1,0-0.3c0.9-0.2,1.9-0.2,2.8,0C12.6,9.3,12.6,9.4,12.6,9.4z"
		/>
	<path fill="#1475B4" d="M8,9.2c-1,0-2,0-3,0C6,8.8,7,8.8,8,9.2z"/>
	<path fill="#0267AF" d="M5.3,19c0.8,0,1.7,0,2.5,0c0,0,0,0.1,0,0.1c-0.8,0-1.7,0-2.5,0C5.3,19,5.3,19,5.3,19z"/>
	<path fill="#0267AF" d="M9.9,19c0.8,0,1.7,0,2.5,0c0,0,0,0.1,0,0.1c-0.8,0-1.7,0-2.5,0C9.9,19,9.9,19,9.9,19z"/>
	<path fill="#1475B4" d="M12.6,9.2c-0.9,0-1.9,0-2.8,0C10.8,8.8,11.7,8.8,12.6,9.2z"/>
	<path fill="#0964AE" d="M15.8,9.2c-0.2,0-0.4,0-0.6,0c-0.1,0-0.2-0.1-0.3-0.1C15.3,8.8,15.7,8.9,16,9C16.1,9,15.9,9.2,15.8,9.2z"/>
</g>
</svg>
