<?xml version="1.0" encoding="utf-8"?>
<!-- Generator: Adobe Illustrator 17.1.0, SVG Export Plug-In . SVG Version: 6.00 Build 0)  -->
<!DOCTYPE svg PUBLIC "-//W3C//DTD SVG 1.1//EN" "http://www.w3.org/Graphics/SVG/1.1/DTD/svg11.dtd">
<svg version="1.1" id="Layer_1" xmlns="http://www.w3.org/2000/svg" xmlns:xlink="http://www.w3.org/1999/xlink" x="0px" y="0px"
	 viewBox="0 0 23.9 23.8" enable-background="new 0 0 23.9 23.8" xml:space="preserve">
<g>
	<path opacity="0.8" fill="#0D161F" d="M11.9,0c6.6,0,12,5.3,12,11.8c0,6.6-5.3,11.9-11.9,11.9c-6.6,0-12-5.3-12-11.9
		C0,5.3,5.2,0,11.9,0z"/>
	<path fill="#FFFFFF" d="M15,6.1c1.1,0.2,1.9,1.4,3.2,0.7c0.1-0.1,0.4,0,0.3,0.2c-0.1,0.2-0.3,0.3-0.4,0.5c0,0.3,0.3,0.3,0.5,0.4
		c0.4,0.3,0.1,0.6-0.1,0.7c-0.6,0.3-0.7,0.8-0.8,1.4c-0.3,3.3-1.8,5.8-4.8,7.2c-0.5,0.2-0.9,0.5-1.4,0.7c-0.3,0-0.6,0.2-0.9,0
		c-1.5,0-3,0-4.3-0.7c-0.4-0.2-0.8-0.2-1-0.7c0.4-0.2,0.7-0.2,1.1,0c0.9-0.1,1.7-0.4,2.6-1c-1.1-0.4-2-0.9-2.4-2
		c-0.2-0.2,0.6-0.4,0.1-0.7c-0.7-0.4-0.8-1.1-1-1.7c-0.1-0.3-0.3-0.7,0.4-0.5C6.5,10.8,6.1,10.2,6,10C5.3,9,5.1,8,5.7,6.8
		C7.3,8.4,8.9,9.4,11,9.7c0.4,0,0.8,0.3,0.8-0.4c0-1.8,1.1-2.7,2.6-3.2C14.6,5.9,14.8,5.9,15,6.1z"/>
	<path fill="#1CA8E1" d="M15,6.1c-0.2,0-0.4,0-0.6,0c-0.2,0-0.3,0-0.5-0.1c0.6-0.2,0.6-0.2,1.9-0.1C15.3,6.1,15.2,6.1,15,6.1z"/>
	<path fill="#37B3E4" d="M6.5,12.8c0.3,0,0.6,0.1,0.8,0.4c-0.3,0.1-0.6,0.2-0.8,0.3C6.1,13.2,6.4,13,6.5,12.8z"/>
	<path fill="#19A4DE" d="M10.4,17.9c0.3-0.1,0.6-0.3,0.9,0C11.1,18.2,10.7,18.2,10.4,17.9z"/>
	<path fill="#18A6DF" d="M8.6,18.3c0.5-0.2,0.8-0.2,1.1-0.1C9.4,18.5,9.1,18.3,8.6,18.3z"/>
	<path fill="#1DA9E1" d="M6.2,16.5c-0.4,0-0.8,0-1.1,0C5.5,16.1,5.9,16.3,6.2,16.5z"/>
</g>
</svg>
