<?xml version="1.0" encoding="utf-8"?>
<!-- Generator: Adobe Illustrator 18.1.0, SVG Export Plug-In . SVG Version: 6.00 Build 0)  -->
<svg version="1.1" id="Layer_1" xmlns="http://www.w3.org/2000/svg" xmlns:xlink="http://www.w3.org/1999/xlink" x="0px" y="0px"
	 viewBox="234 0 970.6 900" enable-background="new 234 0 970.6 900" xml:space="preserve">
<path display="none" fill="#FFFFFF" d="M909,338.4h-66.6v108H909v316.8h129.6v-315h86.4l14.4-109.8h-99l1.8-52.2
	c0,0-7.2-39.6,34.2-43.2h63V135h-106.2c0,0-118.8,0-120.6,111.6L909,338.4z"/>
<path fill="#FFFFFF" d="M990.4,305.6c-19.6,9.1-40.8,15.1-62,16.6c22.7-13.6,39.3-34.8,48.4-60.4c-21.2,12.1-43.8,21.2-69.5,25.7
	c-19.6-21.2-48.4-34.8-78.6-34.8C768.3,252.7,720,301,720,361.5c0,9.1,1.5,16.6,3,24.2c-90.7-4.5-170.8-48.4-223.6-113.3
	c-9.1,16.6-15.1,34.8-15.1,54.4c0,37.8,19.6,71,48.4,90.7c-18.1,0-34.8-6-49.9-13.6v1.5c0,52.9,37.8,96.7,87.6,105.8
	c-9.1,3-18.1,4.5-28.7,4.5c-7.6,0-13.6,0-21.2-1.5c13.6,43.8,54.4,74,101.2,75.6c-37.8,28.7-84.6,46.8-134.5,46.8
	c-9.1,0-18.1,0-25.7-1.5c48.4,30.2,105.8,48.4,166.2,48.4c199.5,0,308.3-164.7,308.3-308.3c0-4.5,0-9.1,0-13.6
	C957.2,347.9,975.3,328.2,990.4,305.6z"/>
<g display="none">
	<g display="inline">
		<g>
			<path fill="#FFFFFF" d="M687.6,345.6h129.6v417.6H687.6V345.6z M752.4,136.8c41.4,0,75.6,34.2,75.6,75.6S793.8,288,752.4,288
				c-41.4,0-75.6-34.2-75.6-75.6S711,136.8,752.4,136.8"/>
			<path fill="#FFFFFF" d="M898.2,345.6h124.2v57.6h1.8c18-32.4,59.4-66.6,122.4-66.6c131.4,0,154.8,86.4,154.8,199.8V765h-129.6
				V559.8c0-48.6-1.8-111.6-68.4-111.6c-68.4,0-77.4,52.2-77.4,108v207H896.4V345.6H898.2z"/>
		</g>
	</g>
</g>
</svg>
